Coordinates
version=1
nRows=21
nColumns=12
inDegrees=yes

Units are S.I. units (second, meters, Newtons, ...)
Angles are in degrees

endheader
time	SC_y	SC_z	SC_x	AC_y	AC_z	AC_x	GH_y	GH_z	GH_yy	EL_x	PS_y
       0.0               -30.3          39.86          35.41          45.83          -9.53         -15.84           63.6          40.25         -112.1          117.5          84.36
    0.0391               -30.3          39.86          35.41          45.83         -9.529         -15.83          63.59          40.24         -112.1          117.4          84.35
    0.0782               -30.3          39.86          35.41          45.83         -9.529         -15.83          63.57          40.23         -112.1          117.4          84.35
    0.1173               -30.3          39.85          35.41          45.84         -9.528         -15.83          63.56          40.22         -112.1          117.4          84.34
    0.1564               -30.3          39.85          35.41          45.84         -9.528         -15.83          63.55          40.21         -112.1          117.4          84.34
    0.1955               -30.3          39.85          35.42          45.84         -9.527         -15.82          63.53           40.2         -112.1          117.4          84.33
    0.2346               -30.3          39.85          35.42          45.84         -9.527         -15.82          63.51          40.19         -112.1          117.3          84.32
    0.2737              -30.31          39.84          35.42          45.85         -9.526         -15.82           63.5          40.18         -112.1          117.3          84.32
    0.3128              -30.31          39.84          35.42          45.85         -9.525         -15.82          63.48          40.17         -112.1          117.3          84.31
    0.3519              -30.31          39.84          35.43          45.85         -9.525         -15.81          63.46          40.16         -112.1          117.3           84.3
     0.391              -30.31          39.84          35.43          45.85         -9.524         -15.81          63.44          40.14         -112.1          117.2          84.29
    0.4301              -30.31          39.83          35.43          45.86         -9.523         -15.81          63.41          40.13         -112.1          117.2          84.28
    0.4692              -30.31          39.83          35.43          45.86         -9.522          -15.8          63.39          40.11         -112.1          117.2          84.27
    0.5083              -30.32          39.83          35.44          45.86         -9.521          -15.8          63.36          40.09         -112.0          117.1          84.26
    0.5474              -30.32          39.82          35.44          45.87          -9.52         -15.79          63.33          40.07         -112.0          117.1          84.25
    0.5865              -30.32          39.82          35.45          45.87         -9.519         -15.79           63.3          40.05         -112.0          117.1          84.24
    0.6256              -30.32          39.81          35.45          45.88         -9.517         -15.78          63.27          40.03         -112.0          117.0          84.23
    0.6647              -30.32          39.81          35.46          45.88         -9.516         -15.78          63.23           40.0         -112.0          117.0          84.21
    0.7038              -30.33           39.8          35.46          45.89         -9.514         -15.77          63.19          39.97         -112.0          116.9          84.19
    0.7429              -30.33          39.79          35.47          45.89         -9.513         -15.76          63.14          39.94         -112.0          116.8          84.18
     0.782              -30.33          39.79          35.47           45.9         -9.511         -15.76          63.09          39.91         -111.9          116.8          84.16
